<svg width="2154" height="2055" viewBox="0 0 2154 2055" fill="none" xmlns="http://www.w3.org/2000/svg">
<path d="M1249.03 1356.48C1218.03 1337.48 1191.09 1312.54 1169.76 1283.09C1148.42 1253.63 1133.09 1220.23 1124.66 1184.8C1116.22 1149.37 1114.85 1112.6 1120.6 1076.58C1126.35 1040.57 1139.13 1006.02 1158.2 974.91C1177.27 943.799 1202.25 916.734 1231.73 895.26C1261.21 873.786 1294.6 858.325 1330 849.758C1365.4 841.192 1402.11 839.688 1438.05 845.333C1473.98 850.978 1508.43 863.66 1539.42 882.657L1457.07 1017.03C1443.65 1008.81 1428.74 1003.32 1413.19 1000.88C1397.64 998.437 1381.75 999.088 1366.43 1002.8C1351.11 1006.5 1336.66 1013.19 1323.9 1022.49C1311.14 1031.78 1300.33 1043.5 1292.07 1056.96C1283.82 1070.43 1278.29 1085.38 1275.8 1100.96C1273.31 1116.55 1273.91 1132.46 1277.56 1147.8C1281.21 1163.13 1287.84 1177.59 1297.08 1190.34C1306.31 1203.09 1317.97 1213.88 1331.38 1222.1L1249.03 1356.48Z" fill="url(#paint0_linear_5_331)" fill-opacity="0.8"/>
<path opacity="0.7" d="M1660.7 1317.62C1595.97 1360.71 1523.36 1390.59 1447.01 1405.55C1370.66 1420.5 1292.06 1420.24 1215.7 1404.78C1139.34 1389.31 1066.73 1358.95 1001.99 1315.42C937.256 1271.89 881.672 1216.05 838.413 1151.08C795.154 1086.12 765.067 1013.3 749.869 936.782C734.672 860.268 734.663 781.557 749.841 705.143C765.02 628.73 795.089 556.111 838.332 491.432C881.576 426.753 937.146 371.281 1001.87 328.183L1188.72 608.79C1160.7 627.443 1136.65 651.45 1117.94 679.443C1099.22 707.436 1086.21 738.865 1079.64 771.936C1073.07 805.007 1073.07 839.073 1079.65 872.188C1086.23 905.303 1099.25 936.818 1117.97 964.936C1136.69 993.053 1160.75 1017.22 1188.77 1036.06C1216.78 1054.9 1248.21 1068.04 1281.26 1074.73C1314.31 1081.43 1348.32 1081.54 1381.37 1075.07C1414.41 1068.59 1445.84 1055.66 1473.85 1037.01L1660.7 1317.62Z" fill="url(#paint1_linear_5_331)"/>
<rect y="962" width="1440" height="1093" fill="url(#paint2_linear_5_331)"/>
<defs>
<linearGradient id="paint0_linear_5_331" x1="1407.99" y1="674.004" x2="1116.17" y2="1435.22" gradientUnits="userSpaceOnUse">
<stop offset="0.133254" stop-color="white" stop-opacity="0.3"/>
<stop offset="0.265658" stop-color="#F3F5F8"/>
<stop offset="0.497427" stop-color="#E8EAEE"/>
</linearGradient>
<linearGradient id="paint1_linear_5_331" x1="1457.74" y1="684.131" x2="540.097" y2="1516.43" gradientUnits="userSpaceOnUse">
<stop offset="0.183125" stop-color="#F0F0F0"/>
<stop offset="0.33958" stop-color="#F3F4F5"/>
<stop offset="0.694137" stop-color="#E1E8F1"/>
</linearGradient>
<linearGradient id="paint2_linear_5_331" x1="720" y1="962" x2="720" y2="1257" gradientUnits="userSpaceOnUse">
<stop stop-color="#F7F7F7" stop-opacity="0"/>
<stop offset="1" stop-color="#F7F7F7"/>
</linearGradient>
</defs>
</svg>
