<svg width="1440" height="1024" viewBox="0 0 1440 1024" fill="none" xmlns="http://www.w3.org/2000/svg">
<path d="M1249.03 755.477C1218.03 736.481 1191.09 711.542 1169.76 682.086C1148.42 652.629 1133.09 619.232 1124.66 583.8C1116.22 548.368 1114.85 511.596 1120.6 475.583C1126.35 439.57 1139.13 405.022 1158.2 373.91C1177.27 342.799 1202.25 315.734 1231.73 294.26C1261.21 272.786 1294.6 257.325 1330 248.758C1365.4 240.192 1402.11 238.688 1438.05 244.333C1473.98 249.978 1508.43 262.66 1539.42 281.657L1457.07 416.034C1443.65 407.812 1428.74 402.323 1413.19 399.88C1397.64 397.437 1381.75 398.088 1366.43 401.796C1351.11 405.503 1336.66 412.195 1323.9 421.489C1311.14 430.782 1300.33 442.496 1292.07 455.961C1283.82 469.425 1278.29 484.378 1275.8 499.964C1273.31 515.55 1273.91 531.465 1277.56 546.799C1281.21 562.134 1287.84 576.588 1297.08 589.337C1306.31 602.085 1317.97 612.879 1331.38 621.1L1249.03 755.477Z" fill="url(#paint0_linear_39_257)" fill-opacity="0.8"/>
<path opacity="0.7" d="M1660.7 716.617C1595.97 759.715 1523.36 789.594 1447.01 804.549C1370.66 819.505 1292.06 819.243 1215.7 803.779C1139.34 788.315 1066.73 757.951 1001.99 714.422C937.256 670.893 881.672 615.051 838.413 550.084C795.154 485.116 765.067 412.297 749.869 335.782C734.672 259.268 734.663 180.557 749.841 104.143C765.02 27.7299 795.089 -44.8894 838.332 -109.568C881.576 -174.247 937.146 -229.719 1001.87 -272.817L1188.72 7.79027C1160.7 26.4426 1136.65 50.4504 1117.94 78.443C1099.22 106.436 1086.21 137.865 1079.64 170.936C1073.07 204.007 1073.07 238.073 1079.65 271.188C1086.23 304.302 1099.25 335.818 1117.97 363.936C1136.69 392.053 1160.75 416.221 1188.77 435.06C1216.78 453.899 1248.21 467.04 1281.26 473.733C1314.31 480.426 1348.32 480.539 1381.37 474.067C1414.41 467.594 1445.84 454.663 1473.85 436.01L1660.7 716.617Z" fill="url(#paint1_linear_39_257)"/>
<rect y="361" width="1440" height="1093" fill="url(#paint2_linear_39_257)"/>
<defs>
<linearGradient id="paint0_linear_39_257" x1="1407.99" y1="73.0037" x2="1116.17" y2="834.219" gradientUnits="userSpaceOnUse">
<stop offset="0.133254" stop-color="white" stop-opacity="0.3"/>
<stop offset="0.265658" stop-color="#F3F5F8"/>
<stop offset="0.497427" stop-color="#E8EAEE"/>
</linearGradient>
<linearGradient id="paint1_linear_39_257" x1="1457.74" y1="83.131" x2="540.097" y2="915.43" gradientUnits="userSpaceOnUse">
<stop offset="0.183125" stop-color="#F0F0F0"/>
<stop offset="0.33958" stop-color="#F3F4F5"/>
<stop offset="0.694137" stop-color="#E1E8F1"/>
</linearGradient>
<linearGradient id="paint2_linear_39_257" x1="720" y1="361" x2="720" y2="656" gradientUnits="userSpaceOnUse">
<stop stop-color="#F7F7F7" stop-opacity="0"/>
<stop offset="1" stop-color="#F7F7F7"/>
</linearGradient>
</defs>
</svg>
