<svg width="18" height="16" viewBox="0 0 18 16" fill="none" xmlns="http://www.w3.org/2000/svg">
<path fill-rule="evenodd" clip-rule="evenodd" d="M8.18564 5.2782L6.01867 2.88251C6.95064 2.32188 8.04364 2 9.21178 2C12.6425 2 15.4237 4.78067 15.4237 8.21198C15.4237 11.6433 12.6425 14.424 9.21178 14.424C7.50501 14.424 5.95925 13.736 4.83738 12.6221H12.4573L4.46923 12.225L12.9097 12.1724L4.07738 11.7111L7.46978 11.6596C7.46978 11.6596 9.25014 11.7127 10.6234 10.9779C10.8432 10.8649 11.0483 10.7271 11.2335 10.5678C11.355 10.4662 11.4681 10.3552 11.5706 10.2326C12.0361 9.68885 12.3185 8.982 12.3185 8.21088C12.3185 6.49527 10.9274 5.10364 9.21178 5.10364C8.85249 5.10364 8.50697 5.16619 8.18564 5.2782ZM4.20186 4.53813L6.78958 6.26643C7.10245 5.87716 7.50848 5.56428 7.9729 5.36178L5.72821 3.06815C5.13909 3.46729 4.62316 3.96491 4.20186 4.53813ZM6.12222 7.8827L3.1706 6.75511C3.33999 6.04873 3.63134 5.38971 4.01952 4.7991L6.65921 6.44051C6.36888 6.85765 6.17905 7.35041 6.12222 7.8827ZM7.18808 6.53311L9.64695 8.17562V7.07221L8.31889 5.71472C7.88178 5.89984 7.49634 6.1807 7.18808 6.53311ZM9.64658 9.22901L6.46881 8.01461C6.55977 7.52232 6.7665 7.0705 7.05942 6.68873L9.64658 8.29703V9.22901ZM3 8.21196C3 8.93039 3.12204 9.61987 3.34607 10.261H9.64697V9.3412L6.44078 8.21564C6.42552 8.33399 6.41871 8.45548 6.41871 8.57806C6.41871 9.14871 6.57174 9.68194 6.79366 10.1601C6.36345 9.62675 6.10677 8.94824 6.10677 8.21086L6.10787 8.09893L3.10888 7.04491C3.03679 7.42307 3 7.81274 3 8.21196ZM3.42188 10.4661C3.46916 10.5881 3.51918 10.7075 3.5739 10.8242C3.95096 10.8584 4.26133 11.1203 4.36756 11.4695H7.77938L8.38635 10.829H5.61672L5.27269 10.4661H3.42188Z" fill="#EB2126"/>
</svg>
