<svg width="20" height="20" viewBox="0 0 20 20" fill="none" xmlns="http://www.w3.org/2000/svg">
<path fill-rule="evenodd" clip-rule="evenodd" d="M1 17.0713C1 18.1363 1.84818 19 2.89448 19H11.1052C12.1515 19 13 18.1363 13 17.0713V13.2143C13 12.8592 12.7172 12.5713 12.3683 12.5713C12.0194 12.5713 11.7366 12.8592 11.7366 13.2143V17.0713C11.7366 17.4261 11.4537 17.7143 11.1052 17.7143H2.89448C2.5456 17.7143 2.2631 17.4261 2.2631 17.0713V2.92867C2.2631 2.57356 2.5456 2.28566 2.89448 2.28566H11.1052C11.4537 2.28566 11.7366 2.57356 11.7366 2.92867V6.78566C11.7366 7.14078 12.0194 7.42832 12.3683 7.42832C12.7172 7.42832 13 7.14078 13 6.78566V2.92867C13 1.86368 12.1515 1 11.1052 1H2.89448C1.84818 1 1 1.86368 1 2.92867V17.0713Z" fill="#39474E"/>
<path fill-rule="evenodd" clip-rule="evenodd" d="M1 2.92867V17.0713C1 18.1363 1.84818 19 2.89448 19H11.1052C12.1515 19 13 18.1363 13 17.0713V13.2143C13 12.8592 12.7172 12.5713 12.3683 12.5713C12.0194 12.5713 11.7366 12.8592 11.7366 13.2143V17.0713C11.7366 17.4261 11.4537 17.7143 11.1052 17.7143H2.89448C2.5456 17.7143 2.2631 17.4261 2.2631 17.0713V2.92867C2.2631 2.57356 2.5456 2.28566 2.89448 2.28566H11.1052C11.4537 2.28566 11.7366 2.57356 11.7366 2.92867V6.78566C11.7366 7.14078 12.0194 7.42832 12.3683 7.42832C12.7172 7.42832 13 7.14078 13 6.78566V2.92867C13 1.86368 12.1515 1 11.1052 1H2.89448C1.84818 1 1 1.86368 1 2.92867Z" stroke="#39474E" stroke-width="0.5"/>
<path fill-rule="evenodd" clip-rule="evenodd" d="M6.61923 10.6578H16.8872L14.8478 12.8538C14.8427 12.8593 14.8377 12.8648 14.8326 12.8706C14.595 13.1352 14.6018 13.5575 14.8478 13.8129C15.0939 14.0688 15.4857 14.0611 15.7233 13.7965L18.8188 10.4633C18.8764 10.4012 18.9221 10.3275 18.953 10.2458C19.0157 10.083 19.0157 9.89976 18.953 9.73662C18.9221 9.6556 18.8767 9.58188 18.8194 9.5202L15.7236 6.18695C15.484 5.93768 15.1037 5.93768 14.8638 6.18695C14.6177 6.44243 14.6109 6.8647 14.8485 7.1293L16.8872 9.32494H6.61923C6.27725 9.32494 6 9.62312 6 9.99137C6 10.3596 6.27725 10.6578 6.61923 10.6578Z" fill="#39474E"/>
<path fill-rule="evenodd" clip-rule="evenodd" d="M6 9.99137C6 10.3596 6.27725 10.6578 6.61923 10.6578H16.8872L14.8478 12.8538C14.8427 12.8593 14.8377 12.8648 14.8326 12.8706C14.595 13.1352 14.6018 13.5575 14.8478 13.8129C15.0939 14.0688 15.4857 14.0611 15.7233 13.7965L18.8188 10.4633C18.8764 10.4012 18.9221 10.3275 18.953 10.2458C19.0157 10.083 19.0157 9.89976 18.953 9.73662C18.9221 9.6556 18.8767 9.58188 18.8194 9.5202L15.7236 6.18695C15.484 5.93768 15.1037 5.93768 14.8638 6.18695C14.6177 6.44243 14.6109 6.8647 14.8485 7.1293L16.8872 9.32494H6.61923C6.27725 9.32494 6 9.62312 6 9.99137Z" stroke="#39474E" stroke-width="0.5"/>
</svg>
