<svg width="22" height="18" viewBox="0 0 22 18" fill="none" xmlns="http://www.w3.org/2000/svg">
<path fill-rule="evenodd" clip-rule="evenodd" d="M19.8275 14.9001L14.2109 9.00108L19.8275 3.10208V14.9001ZM3 15.7707L8.64743 9.83826L10.6262 11.8993C10.8546 12.1369 11.2248 12.1369 11.4521 11.8982L13.3816 9.87174L18.9981 15.7707H3ZM2.17188 14.9001V3.09558L7.8152 8.97298L2.17188 14.9001ZM18.9988 2.23145L11.0373 10.5944L3.00684 2.23145H18.9988ZM19.2423 1H2.75769C1.78988 1 1 1.82852 1 2.84715V15.1539C1 16.1693 1.78577 17 2.75769 17H19.2423C20.207 17 21 16.1758 21 15.1539V2.84715C21 1.83284 20.2132 1 19.2423 1Z" fill="#39474E"/>
<path d="M19.8275 14.9001L19.7189 15.0035L19.9775 15.2752V14.9001H19.8275ZM14.2109 9.00108L14.1023 8.89765L14.0038 9.00108L14.1023 9.10451L14.2109 9.00108ZM19.8275 3.10208H19.9775V2.72701L19.7189 2.99865L19.8275 3.10208ZM3 15.7707L2.89136 15.6673L2.65011 15.9207H3V15.7707ZM8.64743 9.83826L8.75564 9.73437L8.64697 9.62119L8.53879 9.73483L8.64743 9.83826ZM10.6262 11.8993L10.518 12.0032L10.5181 12.0032L10.6262 11.8993ZM11.4521 11.8982L11.3435 11.7948L11.4521 11.8982ZM13.3816 9.87174L13.4902 9.76831L13.3816 9.65421L13.2729 9.76831L13.3816 9.87174ZM18.9981 15.7707V15.9207H19.3481L19.1068 15.6673L18.9981 15.7707ZM2.17188 14.9001H2.02188V15.2751L2.28051 15.0035L2.17188 14.9001ZM2.17188 3.09558L2.28007 2.99169L2.02188 2.72278V3.09558H2.17188ZM7.8152 8.97298L7.92383 9.07641L8.02273 8.97254L7.92339 8.86909L7.8152 8.97298ZM18.9988 2.23145L19.1075 2.33487L19.3487 2.08145H18.9988V2.23145ZM11.0373 10.5944L10.9291 10.6983L11.0377 10.8114L11.1459 10.6978L11.0373 10.5944ZM3.00684 2.23145V2.08145H2.65484L2.89864 2.33534L3.00684 2.23145ZM19.9362 14.7966L14.3196 8.89765L14.1023 9.10451L19.7189 15.0035L19.9362 14.7966ZM14.3196 9.10451L19.9362 3.20551L19.7189 2.99865L14.1023 8.89765L14.3196 9.10451ZM19.6775 3.10208V14.9001H19.9775V3.10208H19.6775ZM3.10864 15.8742L8.75608 9.94168L8.53879 9.73483L2.89136 15.6673L3.10864 15.8742ZM8.53923 9.94214L10.518 12.0032L10.7344 11.7954L8.75564 9.73437L8.53923 9.94214ZM10.5181 12.0032C10.8053 12.3022 11.2743 12.3025 11.5608 12.0016L11.3435 11.7948C11.1754 11.9713 10.9038 11.9717 10.7344 11.7954L10.5181 12.0032ZM11.5608 12.0016L13.4902 9.97518L13.2729 9.76831L11.3435 11.7948L11.5608 12.0016ZM13.2729 9.97518L18.8895 15.8742L19.1068 15.6673L13.4902 9.76831L13.2729 9.97518ZM18.9981 15.6207H3V15.9207H18.9981V15.6207ZM2.32187 14.9001V3.09558H2.02188V14.9001H2.32187ZM2.06368 3.19947L7.707 9.07687L7.92339 8.86909L2.28007 2.99169L2.06368 3.19947ZM7.70656 8.86954L2.06324 14.7966L2.28051 15.0035L7.92383 9.07641L7.70656 8.86954ZM18.8902 2.12802L10.9286 10.491L11.1459 10.6978L19.1075 2.33487L18.8902 2.12802ZM11.1455 10.4905L3.11503 2.12755L2.89864 2.33534L10.9291 10.6983L11.1455 10.4905ZM3.00684 2.38145H18.9988V2.08145H3.00684V2.38145ZM19.2423 0.85H2.75769V1.15H19.2423V0.85ZM2.75769 0.85C1.70019 0.85 0.85 1.75269 0.85 2.84715H1.15C1.15 1.90434 1.87957 1.15 2.75769 1.15V0.85ZM0.85 2.84715V15.1539H1.15V2.84715H0.85ZM0.85 15.1539C0.85 16.2449 1.6958 17.15 2.75769 17.15V16.85C1.87574 16.85 1.15 16.0938 1.15 15.1539H0.85ZM2.75769 17.15H19.2423V16.85H2.75769V17.15ZM19.2423 17.15C20.2963 17.15 21.15 16.2521 21.15 15.1539H20.85C20.85 16.0995 20.1178 16.85 19.2423 16.85V17.15ZM21.15 15.1539V2.84715H20.85V15.1539H21.15ZM21.15 2.84715C21.15 1.75742 20.3033 0.85 19.2423 0.85V1.15C20.1231 1.15 20.85 1.90825 20.85 2.84715H21.15Z" fill="#39474E"/>
</svg>
