<svg width="27" height="22" viewBox="0 0 27 22" fill="none" xmlns="http://www.w3.org/2000/svg">
<path fill-rule="evenodd" clip-rule="evenodd" d="M13.4707 4.32779L3.8627 12.2488C3.8627 12.2598 3.8597 12.2768 3.8537 12.2988C3.8477 12.3218 3.8457 12.3368 3.8457 12.3488V20.3698C3.8457 20.6598 3.9507 20.9108 4.1627 21.1218C4.3747 21.3328 4.6247 21.4398 4.9147 21.4398H11.3317V15.0228H15.6097V21.4398H22.0267C22.3157 21.4398 22.5667 21.3338 22.7787 21.1218C22.9907 20.9108 23.0957 20.6598 23.0957 20.3698V12.3488C23.0957 12.3048 23.0897 12.2708 23.0787 12.2488L13.4707 4.32779Z" fill="#39474E"/>
<path fill-rule="evenodd" clip-rule="evenodd" d="M26.7549 10.444L23.0959 7.403V0.585C23.0959 0.429 23.0459 0.301 22.9449 0.201C22.8459 0.1 22.7169 0.05 22.5609 0.05H19.3529C19.1959 0.05 19.0679 0.1 18.9679 0.201C18.8679 0.301 18.8179 0.429 18.8179 0.585V3.843L14.7399 0.435C14.3849 0.145 13.9609 0 13.4709 0C12.9809 0 12.5569 0.145 12.2009 0.435L0.185937 10.444C0.0739371 10.533 0.0129371 10.653 0.00193707 10.803C-0.00906293 10.954 0.0299371 11.085 0.118937 11.196L1.15494 12.433C1.24394 12.533 1.36094 12.594 1.50594 12.616C1.63994 12.628 1.77394 12.589 1.90694 12.5L13.4709 2.858L25.0339 12.5C25.1229 12.577 25.2399 12.616 25.3849 12.616H25.4359C25.5799 12.594 25.6959 12.532 25.7859 12.433L26.8219 11.196C26.9109 11.085 26.9499 10.954 26.9389 10.803C26.9279 10.653 26.8659 10.533 26.7549 10.444Z" fill="#39474E"/>
</svg>
