<svg width="27" height="22" viewBox="0 0 27 22" fill="none" xmlns="http://www.w3.org/2000/svg">
<path fill-rule="evenodd" clip-rule="evenodd" d="M13.4707 4.32812L3.8627 12.2491C3.8627 12.2601 3.8597 12.2771 3.8537 12.2991C3.8477 12.3221 3.8457 12.3371 3.8457 12.3491V20.3701C3.8457 20.6601 3.9507 20.9111 4.1627 21.1221C4.3747 21.3331 4.6247 21.4401 4.9147 21.4401H11.3317V15.0231H15.6097V21.4401H22.0267C22.3157 21.4401 22.5667 21.3341 22.7787 21.1221C22.9907 20.9111 23.0957 20.6601 23.0957 20.3701V12.3491C23.0957 12.3051 23.0897 12.2711 23.0787 12.2491L13.4707 4.32812Z" fill="#39474E"/>
<path fill-rule="evenodd" clip-rule="evenodd" d="M26.7548 10.444L23.0958 7.403V0.585C23.0958 0.429 23.0458 0.301 22.9448 0.201C22.8458 0.1 22.7168 0.05 22.5608 0.05H19.3528C19.1958 0.05 19.0678 0.1 18.9678 0.201C18.8678 0.301 18.8178 0.429 18.8178 0.585V3.843L14.7398 0.435C14.3848 0.145 13.9608 0 13.4708 0C12.9808 0 12.5568 0.145 12.2008 0.435L0.185815 10.444C0.073815 10.533 0.012815 10.653 0.001815 10.803C-0.009185 10.954 0.029815 11.085 0.118815 11.196L1.15481 12.433C1.24381 12.533 1.36082 12.594 1.50582 12.616C1.63982 12.628 1.77382 12.589 1.90682 12.5L13.4708 2.858L25.0338 12.5C25.1228 12.577 25.2398 12.616 25.3848 12.616H25.4358C25.5798 12.594 25.6958 12.532 25.7858 12.433L26.8218 11.196C26.9108 11.085 26.9498 10.954 26.9388 10.803C26.9278 10.653 26.8658 10.533 26.7548 10.444Z" fill="#39474E"/>
</svg>
