<svg width="163" height="35" viewBox="0 0 163 35" fill="none" xmlns="http://www.w3.org/2000/svg">
<path fill-rule="evenodd" clip-rule="evenodd" d="M8.29816 2.81008L14.2551 9.39484C15.1379 9.08645 16.0879 8.91523 17.0757 8.91523C21.7917 8.91523 25.6157 12.7401 25.6157 17.4562C25.6157 19.5762 24.8388 21.5186 23.5592 23.0136C23.2775 23.3496 22.9663 23.6561 22.6322 23.9341C22.124 24.3723 21.5597 24.7516 20.9558 25.0618C17.1806 27.0815 12.2869 26.9361 12.2869 26.9361L2.9626 27.0769L27.2405 28.3455L4.03965 28.49L25.9968 29.5818H5.05135C8.13522 32.6436 12.3836 34.5344 17.0757 34.5344C26.5059 34.5344 34.1502 26.891 34.1502 17.4589C34.1502 8.02781 26.5059 0.383484 17.0757 0.383484C13.8648 0.383484 10.8601 1.26906 8.29816 2.81008ZM10.4164 12.1115L3.30327 7.36046C4.46133 5.78446 5.87991 4.41743 7.49918 3.3192L13.6688 9.62503C12.3929 10.1811 11.2762 11.0418 10.4164 12.1115ZM1.57726 24.6406C1.42721 24.3203 1.29005 23.9916 1.15933 23.6565H6.24726L7.19267 24.6535H14.8057L13.1376 26.4145H3.75899C3.46717 25.4544 2.61381 24.7345 1.57726 24.6406ZM0 17.4583C0 19.4338 0.335084 21.3283 0.950937 23.0902H18.2713V20.5624L9.45782 17.4684C9.4164 17.7933 9.39707 18.1284 9.39707 18.4644C9.39707 20.0331 9.81776 21.4995 10.4281 22.8131C9.24517 21.3476 8.54003 19.4826 8.54003 17.4555L8.54279 17.1471L0.299182 14.251C0.101261 15.2903 0 16.3619 0 17.4583ZM18.271 20.2541L9.53583 16.9162C9.7853 15.5629 10.3542 14.322 11.1597 13.2717L18.271 17.6931V20.2541ZM11.5121 12.8443L18.2708 17.3587V14.3255L14.6199 10.5954C13.4195 11.1035 12.359 11.875 11.5121 12.8443ZM8.5827 16.5546L0.469809 13.455C0.935612 11.5136 1.7365 9.70193 2.80343 8.07806L10.0593 12.5906C9.26115 13.7367 8.73919 15.0909 8.5827 16.5546ZM157.702 19.1702L162.215 13.4213H158.171L154.41 18.6611V7.51867H151.088V26.0063H154.41V19.7741L158.403 26.0063H162.551L157.702 19.1702ZM130.382 20.7383C130.382 22.2591 129.264 23.778 127.629 23.778C126.671 23.778 126.099 23.2459 126.099 22.4349C126.099 21.4251 126.877 20.4355 130.382 20.4355V20.7383ZM133.7 17.5238C133.7 14.7916 132.529 13.1429 128.384 13.1429C126.721 13.1429 125.057 13.4706 123.766 13.93L124.053 16.6364C125.143 16.0316 126.697 15.6487 127.862 15.6487C129.73 15.6487 130.382 16.3336 130.382 17.65V18.3349C125.994 18.3349 122.936 19.9311 122.936 22.9441C122.936 24.9712 124.283 26.26 126.621 26.26C128.537 26.26 130.119 25.2731 130.77 23.8803C130.664 24.5413 130.638 25.2731 130.638 26.0077H133.777C133.725 24.9712 133.7 23.7781 133.7 22.7655V17.5238ZM139.764 15.6481C140.569 14.1807 142.072 13.1423 144.176 13.1423C147.078 13.1423 148.011 14.9651 148.011 17.1689V26.0072H144.721V17.9532C144.721 16.6359 144.356 15.8516 143.137 15.8516C141.454 15.8516 140.13 17.7258 140.13 19.9305V26.0072H136.811V13.4222H139.949C139.949 14.0049 139.893 14.9899 139.764 15.6481ZM80.2597 22.8391C79.6052 22.8391 78.9755 22.8151 78.6221 22.7627V18.7352C78.9516 18.7094 79.8225 18.7094 80.0425 18.7094C82.0392 18.7094 83.2156 19.3943 83.2156 20.7126C83.2156 22.0281 82.1496 22.8391 80.2597 22.8391ZM78.6221 12.0262C79.1394 12.0022 79.7405 11.9755 80.3997 11.9755C82.1773 11.9755 82.9689 12.6337 82.9689 13.7255C82.9689 15.0143 81.9609 15.7986 79.8795 15.7986C79.3852 15.7986 78.9755 15.7986 78.6221 15.7719V12.0262ZM84.8034 16.8122C86.3877 16.1513 87.4822 14.7088 87.4822 13.1144C87.4822 10.2542 85.1053 8.81074 81.0834 8.81074C78.8124 8.81074 76.0498 8.85953 74.3523 8.93502V26.004C75.9899 26.004 77.3921 26.0229 78.4848 26.0376H78.485H78.4851C79.1827 26.047 79.7542 26.0547 80.1803 26.0547C85.6245 26.0547 87.7823 23.397 87.7823 20.6593C87.7823 18.9636 86.6887 17.3443 84.8034 16.8122ZM112.617 23.271C113.032 23.3207 113.676 23.3723 114.457 23.3723C116.661 23.3723 117.777 22.3596 117.777 20.8149C117.777 19.1441 116.301 18.4574 114.097 18.4574C113.833 18.4574 112.979 18.4574 112.617 18.4832V23.271ZM114.584 11.471C113.887 11.471 113.212 11.4959 112.617 11.5235V15.9799C113.032 16.0057 113.445 16.0057 113.995 16.0057C116.301 16.0057 117.49 15.0925 117.49 13.5736C117.49 12.3078 116.715 11.471 114.584 11.471ZM121.041 13.0417C121.041 14.7392 119.928 16.2323 118.27 16.8657C120.343 17.3471 121.381 19.017 121.381 20.7385C121.381 23.2212 119.646 26.0575 114.354 26.0575C113.918 26.0575 113.351 26.049 112.682 26.0389H112.682H112.682H112.682H112.682H112.681C111.719 26.0245 110.547 26.0068 109.249 26.0068V8.93692C110.721 8.86235 113.004 8.81356 115.161 8.81356C118.944 8.81356 121.041 10.3067 121.041 13.0417ZM67.8231 22.6376C64.4833 22.6376 63.0058 20.7882 63.0058 17.4199C63.0058 14.3314 64.6223 12.3301 67.6021 12.3301C68.7528 12.3301 69.9265 12.5096 70.9677 12.7885L71.4593 9.21492C70.3113 8.93507 68.9728 8.78318 67.6831 8.78318C61.5844 8.78318 58.3321 12.5335 58.3321 18.0781C58.3321 21.9545 60.1622 26.2342 66.9743 26.2342C68.5586 26.2342 70.2009 25.9801 71.543 25.5493L71.0515 22.0291C70.1732 22.4084 68.7804 22.6376 67.8231 22.6376ZM94.3235 17.4199C94.3235 20.7882 95.8019 22.6376 99.139 22.6376C100.1 22.6376 101.493 22.4084 102.367 22.0291L102.859 25.5493C101.52 25.9801 99.8782 26.2342 98.2921 26.2342C91.4818 26.2342 89.648 21.9545 89.648 18.0781C89.648 12.5335 92.9022 8.78318 99.0064 8.78318C100.292 8.78318 101.63 8.93507 102.78 9.21492L102.286 12.7885C101.244 12.5096 100.071 12.3301 98.9226 12.3301C95.9382 12.3301 94.3235 14.3314 94.3235 17.4199ZM47.6904 22.7136C44.763 22.7136 43.4494 20.6377 43.4494 17.3458C43.4494 13.775 45.5556 12.1787 47.7714 12.1787C50.5893 12.1787 52.0944 14.0042 52.0944 17.4461C52.0944 21.3199 49.7147 22.7136 47.6904 22.7136ZM48.1007 8.58386C43.0653 8.58386 38.9366 12.1032 38.9366 17.6744C38.9366 23.0422 41.7268 26.3396 47.4425 26.3396C52.5581 26.3396 56.6076 22.8166 56.6076 17.1902C56.6076 11.19 52.9696 8.58386 48.1007 8.58386Z" fill="#EB2126"/>
</svg>
