<svg width="116" height="32" viewBox="0 0 116 32" fill="none" xmlns="http://www.w3.org/2000/svg">
<path d="M15.5574 0.443359C12.8601 0.443359 10.3285 1.13259 8.11836 2.33875L11.0542 5.78492L13.1385 8.16409C13.9802 7.87581 14.8781 7.72007 15.8159 7.72007C20.3887 7.72007 24.0966 11.428 24.0966 16.0008C24.0966 19.225 22.2509 22.0183 19.5603 23.3836C19.3946 23.4796 16.3626 25.1928 11.1702 25.1928L2.99219 25.1696C5.82202 29.0399 10.3948 31.5583 15.5574 31.5583C24.1497 31.5583 31.1149 24.593 31.1149 16.0008C31.1149 7.40859 24.1463 0.443359 15.5574 0.443359Z" fill="#E30613"/>
<path d="M3.27051 6.46064L9.52331 10.6192C10.1728 9.86041 10.9548 9.22089 11.8362 8.7371L6.41845 3.41211C5.23217 4.27365 4.17181 5.30087 3.27382 6.46064H3.27051Z" fill="#E30613"/>
<path d="M9.0127 15.0368L16.6771 17.9892V16.1767L10.1526 12.4688C9.63897 13.1447 9.23471 13.9897 9.01601 15.0368H9.0127Z" fill="#E30613"/>
<path d="M10.9779 11.5879L16.6774 15.3787V13.4933L13.3803 10.2559C12.5486 10.5342 11.7069 10.955 10.9746 11.5879H10.9779Z" fill="#E30613"/>
<path d="M16.6775 20.8418V18.7542L8.84405 16.2888C8.76784 17.4917 8.89707 18.9099 9.30133 20.5899C9.30133 20.5899 7.51198 18.7343 7.50204 15.868L0.19219 13.5684C0.0662724 14.3603 0 15.1722 0 16.0006C0 17.6905 0.271717 19.3208 0.772073 20.8451H16.6775V20.8418Z" fill="#E30613"/>
<path d="M0.603027 11.7097L7.555 14.5064C7.724 13.4792 8.09512 12.5215 8.62862 11.6766L2.26978 7.90234C1.55404 9.07537 0.990721 10.3544 0.603027 11.7064V11.7097Z" fill="#E30613"/>
<path d="M7.41268 21.7885H1.12012C1.45148 22.6169 1.85243 23.4088 2.31633 24.1577H13.5462L14.981 22.6434H8.2212L7.40937 21.7852L7.41268 21.7885Z" fill="#E30613"/>
<path d="M112.215 19.1968C111.181 20.7906 109.389 21.8443 107.351 21.8443C104.147 21.8443 101.549 19.2465 101.549 16.0422C101.549 12.8379 104.147 10.24 107.351 10.24C109.402 10.24 111.198 11.307 112.232 12.9108L115.327 8.56998C113.342 6.44595 110.515 5.11719 107.377 5.11719C101.367 5.11719 96.4922 9.99152 96.4922 16.0024C96.4922 22.0133 101.367 26.8877 107.377 26.8877C110.489 26.8877 113.292 25.5821 115.274 23.4879L112.215 19.1968Z" fill="#E30613"/>
<path d="M73.9131 19.1968C72.8792 20.7906 71.0866 21.8443 69.0487 21.8443C65.8444 21.8443 63.2465 19.2465 63.2465 16.0422C63.2465 12.8379 65.8444 10.24 69.0487 10.24C71.0998 10.24 72.8958 11.307 73.9296 12.9108L77.0246 8.56998C75.0397 6.44595 72.2132 5.11719 69.0752 5.11719C63.0643 5.11719 58.1899 9.99152 58.1899 16.0024C58.1899 22.0133 63.0643 26.8877 69.0752 26.8877C72.1867 26.8877 74.99 25.5821 76.9715 23.4879L73.9131 19.1968Z" fill="#E30613"/>
<path d="M79.0957 5.44141H87.2737C91.7107 5.44141 94.4245 7.49254 94.4245 11.174C94.4245 13.1058 93.6392 14.4942 92.1613 15.4883C94.1826 16.3929 95.0872 18.1127 95.0872 20.1638C95.0872 24.6008 91.6477 26.5591 87.4228 26.5591H79.0957V5.44141ZM87.108 14.0038C88.5329 14.0038 89.2917 13.023 89.2917 11.734C89.2917 10.445 88.5362 9.59669 87.0186 9.59669H84.149V14.0071H87.108V14.0038ZM87.4527 22.4303C89.0564 22.4303 89.9909 21.0949 89.9909 19.8921C89.9909 18.6893 89.1459 17.3969 87.5852 17.3969H84.1457V22.4303H87.4493H87.4527Z" fill="#E30613"/>
<path d="M45.5918 5.11719C39.5809 5.11719 34.7065 9.99152 34.7065 16.0024C34.7065 22.0133 39.5809 26.8877 45.5918 26.8877C51.6027 26.8877 56.477 22.0133 56.477 16.0024C56.477 9.99152 51.6027 5.11719 45.5918 5.11719ZM45.5653 21.8443C42.361 21.8443 39.7631 19.2465 39.7631 16.0422C39.7631 12.8379 42.361 10.24 45.5653 10.24C48.7695 10.24 51.3674 12.8379 51.3674 16.0422C51.3674 19.2465 48.7695 21.8443 45.5653 21.8443Z" fill="#E30613"/>
</svg>
