<svg width="116" height="32" viewBox="0 0 116 32" fill="none" xmlns="http://www.w3.org/2000/svg">
<path d="M15.5577 0.442688C12.8604 0.442688 10.3288 1.13192 8.1186 2.33808L11.0545 5.78424L13.1387 8.16342C13.9804 7.87514 14.8784 7.7194 15.8161 7.7194C20.3889 7.7194 24.0969 11.4273 24.0969 16.0001C24.0969 19.2243 22.2512 22.0177 19.5605 23.3829C19.3949 23.479 16.3629 25.1921 11.1704 25.1921L2.99243 25.1689C5.82226 29.0392 10.3951 31.5576 15.5577 31.5576C24.1499 31.5576 31.1151 24.5924 31.1151 16.0001C31.1151 7.40792 24.1466 0.442688 15.5577 0.442688Z" fill="#E30613"/>
<path d="M3.27051 6.45966L9.52331 10.6183C10.1728 9.85944 10.9548 9.21991 11.8362 8.73612L6.41845 3.41113C5.23217 4.27267 4.17181 5.2999 3.27382 6.45966H3.27051Z" fill="#E30613"/>
<path d="M9.01282 15.0365L16.6772 17.9889V16.1764L10.1527 12.4684C9.63909 13.1444 9.23483 13.9894 9.01613 15.0365H9.01282Z" fill="#E30613"/>
<path d="M10.9778 11.587L16.6772 15.3778V13.4923L13.3802 10.2549C12.5485 10.5333 11.7068 10.9541 10.9745 11.587H10.9778Z" fill="#E30613"/>
<path d="M16.6775 20.8404V18.7528L8.84405 16.2874C8.76784 17.4903 8.89707 18.9085 9.30133 20.5885C9.30133 20.5885 7.51198 18.7329 7.50204 15.8666L0.19219 13.567C0.0662724 14.3589 0 15.1707 0 15.9992C0 17.6891 0.271717 19.3194 0.772073 20.8437H16.6775V20.8404Z" fill="#E30613"/>
<path d="M0.603027 11.7086L7.555 14.5053C7.724 13.478 8.09512 12.5204 8.62862 11.6754L2.26978 7.90121C1.55404 9.07424 0.990721 10.3533 0.603027 11.7053V11.7086Z" fill="#E30613"/>
<path d="M7.41268 21.7884H1.12012C1.45148 22.6168 1.85243 23.4088 2.31633 24.1576H13.5462L14.981 22.6433H8.2212L7.40937 21.7851L7.41268 21.7884Z" fill="#E30613"/>
<path d="M112.215 19.1953C111.182 20.7891 109.389 21.8429 107.351 21.8429C104.147 21.8429 101.549 19.245 101.549 16.0407C101.549 12.8365 104.147 10.2386 107.351 10.2386C109.402 10.2386 111.198 11.3056 112.232 12.9094L115.327 8.56851C113.342 6.44448 110.516 5.11572 107.378 5.11572C101.367 5.11572 96.4923 9.99006 96.4923 16.001C96.4923 22.0119 101.367 26.8862 107.378 26.8862C110.489 26.8862 113.292 25.5806 115.274 23.4864L112.215 19.1953Z" fill="#E30613"/>
<path d="M73.9132 19.1953C72.8793 20.7891 71.0867 21.8429 69.0488 21.8429C65.8445 21.8429 63.2466 19.245 63.2466 16.0407C63.2466 12.8365 65.8445 10.2386 69.0488 10.2386C71.0999 10.2386 72.8959 11.3056 73.9298 12.9094L77.0247 8.56851C75.0398 6.44448 72.2133 5.11572 69.0753 5.11572C63.0644 5.11572 58.1901 9.99006 58.1901 16.001C58.1901 22.0119 63.0644 26.8862 69.0753 26.8862C72.1868 26.8862 74.9901 25.5806 76.9717 23.4864L73.9132 19.1953Z" fill="#E30613"/>
<path d="M79.0959 5.44061H87.274C91.7109 5.44061 94.4248 7.49174 94.4248 11.1732C94.4248 13.105 93.6394 14.4934 92.1616 15.4875C94.1829 16.3921 95.0875 18.1119 95.0875 20.163C95.0875 24.6 91.6479 26.5583 87.4231 26.5583H79.0959V5.44061ZM87.1083 14.003C88.5331 14.003 89.292 13.0222 89.292 11.7332C89.292 10.4442 88.5364 9.59589 87.0188 9.59589H84.1492V14.0063H87.1083V14.003ZM87.4529 22.4295C89.0567 22.4295 89.9911 21.0942 89.9911 19.8913C89.9911 18.6885 89.1462 17.3962 87.5854 17.3962H84.1459V22.4295H87.4496H87.4529Z" fill="#E30613"/>
<path d="M45.5919 5.11572C39.581 5.11572 34.7067 9.99006 34.7067 16.001C34.7067 22.0119 39.581 26.8862 45.5919 26.8862C51.6028 26.8862 56.4771 22.0119 56.4771 16.001C56.4771 9.99006 51.6028 5.11572 45.5919 5.11572ZM45.5654 21.8429C42.3611 21.8429 39.7632 19.245 39.7632 16.0407C39.7632 12.8365 42.3611 10.2386 45.5654 10.2386C48.7697 10.2386 51.3675 12.8365 51.3675 16.0407C51.3675 19.245 48.7697 21.8429 45.5654 21.8429Z" fill="#E30613"/>
</svg>
