<svg width="116" height="32" viewBox="0 0 116 32" fill="none" xmlns="http://www.w3.org/2000/svg">
<path d="M15.5577 0.442688C12.8604 0.442688 10.3288 1.13192 8.1186 2.33808L11.0545 5.78424L13.1387 8.16342C13.9804 7.87514 14.8784 7.7194 15.8161 7.7194C20.3889 7.7194 24.0969 11.4273 24.0969 16.0001C24.0969 19.2243 22.2512 22.0177 19.5605 23.3829C19.3949 23.479 16.3629 25.1921 11.1704 25.1921L2.99243 25.1689C5.82226 29.0392 10.3951 31.5576 15.5577 31.5576C24.1499 31.5576 31.1151 24.5924 31.1151 16.0001C31.1151 7.40792 24.1466 0.442688 15.5577 0.442688Z" fill="#E30613"/>
<path d="M3.27051 6.45966L9.52331 10.6183C10.1728 9.85944 10.9548 9.21991 11.8362 8.73612L6.41845 3.41113C5.23217 4.27267 4.17181 5.2999 3.27382 6.45966H3.27051Z" fill="#E30613"/>
<path d="M9.01294 15.0365L16.6773 17.9889V16.1764L10.1528 12.4684C9.63921 13.1444 9.23495 13.9894 9.01625 15.0365H9.01294Z" fill="#E30613"/>
<path d="M10.9777 11.587L16.6771 15.3778V13.4923L13.3801 10.2549C12.5483 10.5333 11.7067 10.9541 10.9744 11.587H10.9777Z" fill="#E30613"/>
<path d="M16.6775 20.8404V18.7528L8.84405 16.2874C8.76784 17.4903 8.89707 18.9085 9.30133 20.5885C9.30133 20.5885 7.51198 18.7329 7.50204 15.8666L0.19219 13.567C0.0662724 14.3589 0 15.1707 0 15.9992C0 17.6891 0.271717 19.3194 0.772073 20.8437H16.6775V20.8404Z" fill="#E30613"/>
<path d="M0.603027 11.7086L7.555 14.5053C7.724 13.478 8.09512 12.5204 8.62862 11.6754L2.26978 7.90121C1.55404 9.07424 0.990721 10.3533 0.603027 11.7053V11.7086Z" fill="#E30613"/>
<path d="M7.41268 21.7884H1.12012C1.45148 22.6168 1.85243 23.4088 2.31633 24.1576H13.5462L14.981 22.6433H8.2212L7.40937 21.7851L7.41268 21.7884Z" fill="#E30613"/>
<path d="M112.215 19.1953C111.181 20.7891 109.389 21.8429 107.351 21.8429C104.147 21.8429 101.549 19.245 101.549 16.0407C101.549 12.8365 104.147 10.2386 107.351 10.2386C109.402 10.2386 111.198 11.3056 112.232 12.9094L115.327 8.56851C113.342 6.44448 110.515 5.11572 107.377 5.11572C101.367 5.11572 96.4922 9.99006 96.4922 16.001C96.4922 22.0119 101.367 26.8862 107.377 26.8862C110.489 26.8862 113.292 25.5806 115.274 23.4864L112.215 19.1953Z" fill="#E30613"/>
<path d="M73.9131 19.1953C72.8792 20.7891 71.0866 21.8429 69.0487 21.8429C65.8444 21.8429 63.2465 19.245 63.2465 16.0407C63.2465 12.8365 65.8444 10.2386 69.0487 10.2386C71.0998 10.2386 72.8958 11.3056 73.9296 12.9094L77.0246 8.56851C75.0397 6.44448 72.2132 5.11572 69.0752 5.11572C63.0643 5.11572 58.1899 9.99006 58.1899 16.001C58.1899 22.0119 63.0643 26.8862 69.0752 26.8862C72.1867 26.8862 74.99 25.5806 76.9715 23.4864L73.9131 19.1953Z" fill="#E30613"/>
<path d="M79.0959 5.44061H87.274C91.7109 5.44061 94.4248 7.49174 94.4248 11.1732C94.4248 13.105 93.6394 14.4934 92.1616 15.4875C94.1829 16.3921 95.0875 18.1119 95.0875 20.163C95.0875 24.6 91.6479 26.5583 87.4231 26.5583H79.0959V5.44061ZM87.1083 14.003C88.5331 14.003 89.292 13.0222 89.292 11.7332C89.292 10.4442 88.5364 9.59589 87.0188 9.59589H84.1492V14.0063H87.1083V14.003ZM87.4529 22.4295C89.0567 22.4295 89.9911 21.0942 89.9911 19.8913C89.9911 18.6885 89.1462 17.3962 87.5854 17.3962H84.1459V22.4295H87.4496H87.4529Z" fill="#E30613"/>
<path d="M45.5918 5.11572C39.5809 5.11572 34.7065 9.99006 34.7065 16.001C34.7065 22.0119 39.5809 26.8862 45.5918 26.8862C51.6027 26.8862 56.477 22.0119 56.477 16.001C56.477 9.99006 51.6027 5.11572 45.5918 5.11572ZM45.5653 21.8429C42.361 21.8429 39.7631 19.245 39.7631 16.0407C39.7631 12.8365 42.361 10.2386 45.5653 10.2386C48.7695 10.2386 51.3674 12.8365 51.3674 16.0407C51.3674 19.245 48.7695 21.8429 45.5653 21.8429Z" fill="#E30613"/>
</svg>
