<svg width="9" height="9" viewBox="0 0 9 9" fill="none" xmlns="http://www.w3.org/2000/svg">
<path d="M0.281234 6.81563C0.00509165 7.09177 0.00509153 7.53948 0.281234 7.81563C0.557376 8.09177 1.00509 8.09177 1.28123 7.81563L4.03905 5.05781L6.79686 7.81563C7.073 8.09177 7.52072 8.09177 7.79686 7.81563C8.073 7.53948 8.073 7.09177 7.79686 6.81563L5.03905 4.05781L7.79686 1.3C8.073 1.02386 8.073 0.576145 7.79686 0.300002C7.52072 0.0238598 7.073 0.02386 6.79686 0.300002L4.03905 3.05781L1.28123 0.300002C1.00509 0.02386 0.557376 0.0238598 0.281234 0.300002C0.00509153 0.576145 0.00509165 1.02386 0.281234 1.3L3.03905 4.05781L0.281234 6.81563Z" fill="#5E6063"/>
</svg>
