<svg width="9" height="9" viewBox="0 0 9 9" fill="none" xmlns="http://www.w3.org/2000/svg">
<path d="M0.281326 6.81563C0.00518321 7.09177 0.00518309 7.53948 0.281326 7.81563C0.557468 8.09177 1.00518 8.09177 1.28133 7.81563L4.03914 5.05781L6.79695 7.81563C7.07309 8.09177 7.52081 8.09177 7.79695 7.81563C8.07309 7.53948 8.07309 7.09177 7.79695 6.81563L5.03914 4.05781L7.79695 1.3C8.07309 1.02386 8.07309 0.576145 7.79695 0.300002C7.52081 0.0238598 7.07309 0.02386 6.79695 0.300002L4.03914 3.05781L1.28133 0.300002C1.00518 0.02386 0.557468 0.0238598 0.281326 0.300002C0.00518309 0.576145 0.00518321 1.02386 0.281326 1.3L3.03914 4.05781L0.281326 6.81563Z" fill="#5E6063"/>
</svg>
