<svg width="9" height="9" viewBox="0 0 9 9" fill="none" xmlns="http://www.w3.org/2000/svg">
<path d="M0.281204 6.81563C0.00506113 7.09177 0.00506102 7.53948 0.281203 7.81563C0.557346 8.09177 1.00506 8.09177 1.2812 7.81563L4.03902 5.05781L6.79683 7.81563C7.07297 8.09177 7.52069 8.09177 7.79683 7.81563C8.07297 7.53948 8.07297 7.09177 7.79683 6.81563L5.03902 4.05781L7.79683 1.3C8.07297 1.02386 8.07297 0.576145 7.79683 0.300002C7.52069 0.0238598 7.07297 0.02386 6.79683 0.300002L4.03902 3.05781L1.2812 0.300002C1.00506 0.02386 0.557346 0.0238598 0.281203 0.300002C0.00506102 0.576145 0.00506113 1.02386 0.281204 1.3L3.03902 4.05781L0.281204 6.81563Z" fill="#5E6063"/>
</svg>
